# AST/ASF file generated using VICON BodyLanguage
# -----------------------------------------------
:version 1.10
:name VICON
:units
  mass 1.0
  length 0.45
  angle deg
:documentation
   .ast/.asf automatically generated from VICON data using
   VICON BodyBuilder and BodyLanguage model FoxedUp or BRILLIANT.MOD
:root
   order TX TY TZ RX RY RZ
   axis XYZ
   position 0 0 0  
   orientation 0 0 0 
:bonedata
  begin
     id 1 
     name lhipjoint
     direction 0.710087 -0.641647 0.289942 
     length 2.79038 
     axis 0 0 0  XYZ
  end
  begin
     id 2 
     name lfemur
     direction 0.34202 -0.939693 0  
     length 7.2706  
     axis 0 0 20  XYZ
    dof rx ry rz
    limits (-160.0 20.0)
           (-70.0 70.0)
           (-60.0 70.0)
  end
  begin
     id 3 
     name ltibia
     direction 0.34202 -0.939693 0   
     length 7.86328   
     axis 0 0 20   XYZ
    dof rx
    limits (-10.0 170.0)
  end
  begin
     id 4 
     name lfoot
     direction 0.0541246 -0.148706 0.987399   
     length 2.37542   
     axis -90 7.62852e-016 20   XYZ
    dof rx rz
    limits (-45.0 90.0)
           (-70.0 20.0)
  end
  begin
     id 5 
     name ltoes
     direction 1.53554e-011 -4.21866e-011 1   
     length 1.19593   
     axis -90 7.62852e-016 20   XYZ
    dof rx
    limits (-90.0 20.0)
  end
  begin
     id 6 
     name rhipjoint
     direction -0.675762 -0.671724 0.303533   
     length 2.66544  
     axis 0 0 0  XYZ 
  end
  begin
     id 7 
     name rfemur
     direction -0.34202 -0.939693 0   
     length 8.11844   
     axis 0 0 -20   XYZ
    dof rx ry rz
    limits (-160.0 20.0)
           (-70.0 70.0)
           (-70.0 60.0)
  end
  begin
     id 8 
     name rtibia
     direction -0.34202 -0.939693 0   
     length 7.97082   
     axis 0 0 -20   XYZ
    dof rx
    limits (-10.0 170.0)
 end
 begin
     id 9 
     name rfoot
     direction -0.0726228 -0.199474 0.977208   
     length 2.19677  
     axis -90 -7.62852e-016 -20   XYZ
    dof rx rz
    limits (-45.0 90.0)
           (-20.0 70.0)
  end
  begin
     id 10 
     name rtoes
     direction -1.53508e-011 -4.21913e-011 1   
     length 1.10438   
     axis -90 -7.62852e-016 -20   XYZ
    dof rx
    limits (-90.0 20.0)
  end
  begin
     id 11 
     name lowerback
     direction -0.00404436 0.999673 -0.0252643   
     length 2.03972   
     axis 0 0 0   XYZ
    dof rx ry rz
    limits (-20.0 45.0)
           (-30.0 30.0)
           (-30.0 30.0)
  end
  begin
     id 12 
     name upperback
     direction 0.00744643 0.999969 0.00242763   
     length 2.04273   
     axis 0 0 0   XYZ
    dof rx ry rz
    limits (-20.0 45.0)
           (-30.0 30.0)
           (-30.0 30.0)
  end
  begin
     id 13 
     name thorax
     direction 0.00846113 0.999862 0.0143204   
     length 2.03752   
     axis 0 0 0   XYZ
    dof rx ry rz
    limits (-20.0 45.0)
           (-30.0 30.0)
           (-30.0 30.0)
  end
  begin
     id 14 
     name lowerneck
     direction 0.0328213 0.990857 0.130862   
     length 1.37497   
     axis 0 0 0   XYZ
    dof rx ry rz
    limits (-20.0 45.0)
           (-30.0 30.0)
           (-30.0 30.0)
  end
  begin
     id 15 
     name upperneck
     direction -0.0302832 0.999496 0.00956452   
     length 1.35926   
     axis 0 0 0   XYZ
    dof rx ry rz
    limits (-20.0 45.0)
           (-30.0 30.0)
           (-30.0 30.0)
  end
  begin
     id 16
     name head
     direction -0.0130455 0.999856 -0.0108809  
     length 1.44454  
     axis 0 0 0   XYZ
    dof rx ry rz
    limits (-20.0 45.0)
           (-30.0 30.0)
           (-30.0 30.0)
  end
  begin
     id 17 
     name lclavicle
     direction 0.952957 0.278766 0.119006  
     length 3.10112  
     axis 0 0 0   XYZ
    dof ry rz
    limits (-20.0 10.0)
           (0.0 20.0)
  end
  begin
     id 18 
     name lhumerus
     direction 1 -4.48972e-011 -1.63238e-028   
     length 5.82845   
     axis -180 -30 -90   XYZ
    dof rx ry rz
    limits (-60.0 90.0)
           (-90.0 90.0)
           (-90.0 90.0)
  end
  begin
     id 19
     name lradius
     direction 1 -4.48959e-011 1.45401e-026   
     length 3.49691   
     axis -180 -30 -90   XYZ
    dof rx
    limits (-10.0 170.0)
  end
  begin
     id 20
     name lwrist
     direction 1 -4.48945e-011 2.98015e-026   
     length 1.74845   
     axis -1.7599e-014 90 90   XYZ
    dof ry
    limits (-180.0 0.0)
 end
  begin
     id 21 
     name lhand
     direction 1 -4.4902e-011 5.9603e-026   
     length 0.674998   
     axis -3.80318e-014 90 90   XYZ
    dof rx rz
    limits (-90.0 90.0)
           (-45.0 45.0)
  end
  begin
     id 22 
     name lfingers
     direction 1 -4.48979e-011 1.19206e-025   
     length 0.544201   
     axis -7.60636e-014 90 90   XYZ
    dof rx
    limits (0.0 90.0)
  end
  begin
     id 23
     name lthumb
     direction 0.707107 -6.34941e-011 0.707107   
     length 0.781367   
     axis -90 45 2.85299e-015   XYZ
    dof rx rz
    limits (-45.0 45.0)
           (-45.0 45.0)
  end
  begin
     id 24 
     name rclavicle
     direction -0.967632 0.241887 0.0719654   
     length 3.53012  
     axis 0 0 0   XYZ 
    dof ry rz
    limits (-10.0 20.0)
           (-20.0 0.0)
  end
  begin
     id 25 
     name rhumerus
     direction -1 -4.4897e-011 6.87619e-028  
     length 5.45859   
     axis -180 30 90   XYZ
    dof rx ry rz
    limits (-90.0 60.0)
           (-90.0 90.0)
           (-90.0 90.0)
  end
  begin
     id 26 
     name rradius
     direction -1 -4.48967e-011 1.68055e-026   
     length 3.58491   
     axis -180 30 90   XYZ
    dof rx
    limits (-10.0 170.0)
  end
  begin
     id 27 
     name rwrist
     direction -1 -4.48976e-011 2.98015e-026   
     length 1.79245   
     axis -1.7599e-014 -90 -90   XYZ
    dof ry
    limits (-180.0 0.0)
  end
  begin
     id 28
     name rhand
     direction -1 -4.48996e-011 5.9603e-026   
     length 0.683735   
     axis -3.80318e-014 -90 -90   XYZ
    dof rx rz
    limits (-90.0 90.0)
           (-45.0 45.0)
  end
  begin
     id 29
     name rfingers
     direction -1 -4.48924e-011 1.19206e-025   
     length 0.551245   
     axis -7.60636e-014 -90 -90   XYZ
    dof rx
    limits (0.0 90.0)
  end
  begin
     id 30
     name rthumb
     direction -0.707107 -6.3492e-011 0.707107   
     length 0.791481   
     axis -90 -45 -2.85299e-015   XYZ
    dof rx rz
    limits (-45.0 45.0)
           (-45.0 45.0)
  end
:hierarchy
  begin
    root lhipjoint rhipjoint lowerback
    lhipjoint lfemur
    lfemur ltibia
    ltibia lfoot
    lfoot ltoes
    rhipjoint rfemur
    rfemur rtibia
    rtibia rfoot
    rfoot rtoes
    lowerback upperback
    upperback thorax
    thorax lowerneck lclavicle rclavicle
    lowerneck upperneck
    upperneck head
    lclavicle lhumerus
    lhumerus lradius
    lradius lwrist
    lwrist lhand lthumb
    lhand lfingers
    rclavicle rhumerus
    rhumerus rradius
    rradius rwrist
    rwrist rhand rthumb
    rhand rfingers
  end

#!OML:ASF F:\VICON\USERDATA\INSTALL\rory3\rory3.ASF
:FULLY-SPECIFIED
:DEGREES
1
root 0.0803527 18.1491 -30.964 5.05414 -0.759112 -2.7579
lowerback -5.67683 1.48158 -0.382973
upperback -2.25506 1.98803 0.375925
thorax 0.835332 0.996712 0.724802
lowerneck -5.19192 0.127042 1.36965
upperneck 9.33357 -0.376604 4.35238
head 3.98743 0.0621973 1.19023
rclavicle 4.96962e-017 -6.75868e-015
rhumerus -37.5153 6.22905 -83.2039
rradius 30.4903
rwrist 0.72245
rhand -16.0579 50.0672
rfingers 7.12502
rthumb 10.1443 20.3318
lclavicle 4.96962e-017 -6.75868e-015
lhumerus -35.0899 -12.6762 85.2038
lradius 36.4015
lwrist 26.008
lhand -24.2559 62.3702
lfingers 7.12502
lthumb -177.77 87.6617
rfemur -19.2946 4.85131 20.6825
rtibia 42.2502
rfoot -35.1307 -9.39235
rtoes 9.58455
lfemur -9.15983 -7.67051 -18.627
ltibia 21.8237
lfoot -13.5695 8.67533
ltoes -9.20069
2
root 0.15447 18.1465 -30.9711 5.07255 -0.827373 -2.53771
lowerback -5.78292 1.42783 -0.625631
upperback -2.06958 1.92911 0.428131
thorax 1.07585 0.966554 0.916879
lowerneck -5.60077 0.279515 1.0761
upperneck 9.20781 -0.174708 4.5967
head 4.02294 0.164887 1.33665
rclavicle -5.03671e-014 -5.36719e-015
rhumerus -37.0855 6.53279 -83.0185
rradius 30.2472
rwrist 0.775905
rhand -16.0756 50.2404
rfingers 7.12502
rthumb 10.1272 20.5041
lclavicle -5.03671e-014 -5.36719e-015
lhumerus -34.8236 -12.1368 85.1576
lradius 36.3367
lwrist 25.8683
lhand -24.2242 62.098
lfingers 7.12502
lthumb -177.739 87.9343
rfemur -19.4929 4.19314 20.1307
rtibia 42.4428
rfoot -34.6822 -9.3213
rtoes 7.43847
lfemur -9.27579 -6.69065 -19.098
ltibia 21.9057
lfoot -13.4802 7.605
ltoes -9.12035
3
root 0.226915 18.1377 -30.982 5.04207 -0.951825 -2.5301
lowerback -5.09764 1.46844 -0.696554
upperback -2.27564 1.9836 0.456605
thorax 0.478423 0.998296 0.965113
lowerneck -6.24688 0.326236 0.995087
upperneck 9.57716 -0.163216 4.84797
head 4.28732 0.194442 1.44859
rclavicle -2.85939e-014 -1.39149e-014
rhumerus -37.1869 6.41812 -82.9246
rradius 30.0616
rwrist 0.804277
rhand -16.111 50.1416
rfingers 7.12502
rthumb 10.093 20.4036
lclavicle -2.85939e-014 -1.39149e-014
lhumerus -35.1739 -12.0531 85.1985
lradius 36.3691
lwrist 25.8162
lhand -24.2135 62.2038
lfingers 7.12502
lthumb -177.729 87.8286
rfemur -19.627 3.77725 19.8047
rtibia 42.6333
rfoot -34.296 -8.63438
rtoes 8.21537
lfemur -9.43537 -5.8944 -19.3488
ltibia 22.1657
lfoot -13.2776 7.05505
ltoes -9.8539
4
root 0.298987 18.1274 -30.9954 5.00286 -1.11273 -2.4044
lowerback -5.40735 1.60846 -0.648207
upperback -2.24157 2.17139 0.230927
thorax 0.692299 1.08959 0.72742
lowerneck -5.11572 0.365326 1.29401
upperneck 8.90417 -0.102516 5.14333
head 3.82119 0.220685 1.47676
rclavicle -3.01531e-014 -7.95139e-015
rhumerus -37.3615 5.8733 -82.93
rradius 29.9626
rwrist 1.05906
rhand -16.121 50.2601
rfingers 7.12502
rthumb 10.0834 20.5217
lclavicle -3.01531e-014 -7.95139e-015
lhumerus -35.3962 -12.4976 85.0788
lradius 36.3603
lwrist 25.9333
lhand -24.0245 62.3936
lfingers 7.12502
lthumb -177.546 87.6408
rfemur -19.7816 3.28853 19.3553
rtibia 42.8329
rfoot -33.7795 -7.52337
rtoes 10.3131
lfemur -9.55437 -5.39052 -19.717
ltibia 22.3866
lfoot -13.2572 6.67564
ltoes -10.1081
5
root 0.362835 18.122 -31.0088 5.08199 -1.25961 -2.38819
lowerback -5.45125 1.56995 -0.9097
upperback -2.11344 2.13175 0.411916
thorax 0.832319 1.07033 1.06078
lowerneck -5.40647 0.410193 1.10215
upperneck 8.73197 -0.0243597 5.12613
head 3.81614 0.2521 1.50912
rclavicle 2.54693e-016 -2.98177e-015
rhumerus -37.0369 6.07569 -82.6691
rradius 30.0004
rwrist 1.14677
rhand -16.2112 50.2781
rfingers 7.12502
rthumb 9.99641 20.5355
lclavicle 2.54693e-016 -2.98177e-015
lhumerus -35.1519 -11.891 85.0471
lradius 36.095
lwrist 25.3379
lhand -23.7741 63.1322
lfingers 7.12502
lthumb -177.304 86.905
rfemur -20.089 3.09001 19.0589
rtibia 43.0496
rfoot -33.4777 -6.80699
rtoes 11.945
lfemur -9.82147 -4.75463 -19.937
ltibia 22.6227
lfoot -13.2943 6.32983
ltoes -11.3963
6
root 0.427936 18.1145 -31.0183 5.04963 -1.40935 -2.40303
lowerback -5.37024 1.61129 -1.03634
upperback -1.87772 2.19255 0.462548
thorax 1.02101 1.09875 1.18919
lowerneck -6.07566 0.327149 1.30273
upperneck 8.56406 -0.144732 4.87809
head 3.88939 0.193365 1.38735
rclavicle -1.89467e-015 -1.19271e-015
rhumerus -36.6 5.8403 -82.3948
rradius 29.9963
rwrist 1.27778
rhand -16.1267 50.511
rfingers 7.12502
rthumb 10.0779 20.7723
lclavicle -1.89467e-015 -1.19271e-015
lhumerus -34.7857 -11.787 84.9172
lradius 35.8778
lwrist 24.9532
lhand -23.2931 64.2899
lfingers 7.12502
lthumb -176.84 85.7537
rfemur -20.3071 2.51548 18.7989
rtibia 43.2999
rfoot -32.9448 -6.06963
rtoes 13.0956
lfemur -9.95742 -4.07597 -20.1536
ltibia 22.8402
lfoot -13.2688 5.95458
ltoes -12.3185
7
root 0.495426 18.109 -31.0235 4.98723 -1.59134 -2.32853
lowerback -5.28742 1.6528 -1.11934
upperback -1.98778 2.25145 0.422336
thorax 0.858605 1.1301 1.19279
lowerneck -5.34463 0.324463 1.37613
upperneck 8.10837 -0.118885 4.97116
head 3.58479 0.193572 1.39359
rclavicle 8.09426e-015 1.19271e-015
rhumerus -36.9382 5.69182 -82.3618
rradius 29.9201
rwrist 1.4588
rhand -16.276 50.7335
rfingers 7.12502
rthumb 9.93387 20.9879
lclavicle 8.09426e-015 1.19271e-015
lhumerus -35.1891 -11.7014 84.8505
lradius 35.6723
lwrist 24.9042
lhand -23.3889 63.8395
lfingers 7.12502
lthumb -176.932 86.2029
rfemur -20.5177 1.7766 18.4413
rtibia 43.5707
rfoot -32.0822 -6.11199
rtoes 10.7909
lfemur -10.0336 -3.42682 -20.4604
ltibia 23.0589
lfoot -13.4761 5.18174
ltoes -10.0528
8
root 0.557766 18.101 -31.0374 4.97527 -1.72225 -2.32042
lowerback -5.30779 1.61845 -1.28478
upperback -1.90743 2.21333 0.513871
thorax 0.943506 1.11063 1.37935
lowerneck -5.45492 0.454577 1.36714
upperneck 8.1103 0.0492129 5.01493
head 3.60371 0.279758 1.41883
rclavicle 6.68413e-015 -1.39149e-015
rhumerus -36.7556 5.68152 -82.2094
rradius 29.9038
rwrist 1.43844
rhand -16.216 50.4852
rfingers 7.12502
rthumb 9.99179 20.7423
lclavicle 6.68413e-015 -1.39149e-015
lhumerus -35.2184 -11.3567 84.7822
lradius 35.4182
lwrist 24.9388
lhand -23.7599 63.2349
lfingers 7.12502
lthumb -177.291 86.8026
rfemur -20.8184 1.07736 18.1684
rtibia 43.8999
rfoot -31.1879 -6.69072
rtoes 6.24074
lfemur -10.1669 -2.95642 -20.6763
ltibia 23.2188
lfoot -13.5394 4.75851
ltoes -9.06156
9
root 0.615238 18.0955 -31.0496 4.9808 -1.9389 -2.4492
lowerback -5.23542 1.63396 -1.28213
upperback -1.93491 2.23218 0.573422
thorax 0.87206 1.12103 1.43702
lowerneck -5.38449 0.52067 1.34404
upperneck 8.05345 0.135834 5.12046
head 3.56886 0.324142 1.46075
rclavicle 2.20278e-014 -5.76476e-015
rhumerus -36.8326 5.70972 -82.228
rradius 30.0464
rwrist 1.32321
rhand -16.4358 50.0725
rfingers 7.12502
rthumb 9.77969 20.3196
lclavicle 2.20278e-014 -5.76476e-015
lhumerus -35.461 -11.2685 84.6718
lradius 35.2031
lwrist 24.8543
lhand -23.5546 64.4757
lfingers 7.12502
lthumb -177.093 85.5644
rfemur -21.1277 0.66681 18.0313
rtibia 44.2629
rfoot -30.443 -6.32781
rtoes 5.63064
lfemur -10.2548 -2.58334 -20.7125
ltibia 23.3282
lfoot -13.7157 4.36447
ltoes -7.6837
10
root 0.673975 18.0917 -31.0583 4.99701 -2.19481 -2.47083
lowerback -5.12474 1.7189 -1.24099
upperback -2.18096 2.34223 0.489092
thorax 0.559265 1.17975 1.32453
lowerneck -4.54687 0.506005 1.52405
upperneck 7.82742 0.133524 5.20256
head 3.32802 0.315617 1.44412
rclavicle 4.50993e-015 1.98785e-016
rhumerus -37.4008 5.41332 -82.2741
rradius 30.1324
rwrist 1.24913
rhand -16.4286 49.8935
rfingers 7.12502
rthumb 9.78669 20.1409
lclavicle 4.50993e-015 1.98785e-016
lhumerus -36.0501 -11.4062 84.5517
lradius 34.9868
lwrist 24.9853
lhand -23.6856 62.3198
lfingers 7.12502
lthumb -177.219 87.7185
rfemur -21.4272 0.272157 17.7259
rtibia 44.6581
rfoot -29.5222 -5.63267
rtoes 6.19478
lfemur -10.3405 -2.45983 -20.8915
ltibia 23.4546
lfoot -13.8918 4.15807
ltoes -5.28622
11
root 0.731449 18.0943 -31.0672 5.06256 -2.42953 -2.63381
lowerback -5.12238 1.79867 -1.10065
upperback -2.00587 2.44212 0.50178
thorax 0.739992 1.2266 1.26815
lowerneck -5.6163 0.533116 1.64665
upperneck 8.2456 0.101547 5.19242
head 3.68257 0.327205 1.43482
rclavicle 1.45051e-014 1.59028e-015
rhumerus -36.9727 5.17233 -82.1462
rradius 29.9737
rwrist 1.30249
rhand -16.5084 50.0448
rfingers 7.12502
rthumb 9.70972 20.2886
lclavicle 1.45051e-014 1.59028e-015
lhumerus -35.6387 -11.3251 84.3263
lradius 34.4984
lwrist 24.7604
lhand -23.8301 62.5411
lfingers 7.12502
lthumb -177.359 87.4955
rfemur -21.7206 0.0587005 17.545
rtibia 45.0169
rfoot -28.5909 -5.15582
rtoes 5.87531
lfemur -10.5013 -2.0812 -20.9298
ltibia 23.6355
lfoot -13.9852 4.1244
ltoes -5.77781
12
root 0.784145 18.0912 -31.0746 5.02774 -2.7527 -2.77802
lowerback -4.87399 1.80806 -0.983555
upperback -2.32399 2.44615 0.554163
thorax 0.277636 1.23334 1.24038
lowerneck -4.69459 0.641081 1.52336
upperneck 8.03371 0.286049 5.36326
head 3.42573 0.404182 1.50908
rclavicle -5.59082e-016 -1.19271e-015
rhumerus -37.6872 5.37974 -82.2572
rradius 29.9738
rwrist 1.36356
rhand -16.8423 50.5287
rfingers 7.12502
rthumb 9.38748 20.7577
lclavicle -5.59082e-016 -1.19271e-015
lhumerus -36.337 -10.7778 84.0893
lradius 34.0018
lwrist 24.0385
lhand -23.6828 63.325
lfingers 7.12502
lthumb -177.216 86.7134
rfemur -21.9353 0.260587 17.2968
rtibia 45.3593
rfoot -27.991 -3.83351
rtoes 8.4882
lfemur -10.5455 -1.64574 -20.9924
ltibia 23.7885
lfoot -13.9848 4.13501
ltoes -6.59151
13
root 0.831383 18.0893 -31.0862 5.10722 -3.00796 -3.05266
lowerback -5.0911 1.85173 -0.829818
upperback -2.13138 2.49779 0.654615
thorax 0.596887 1.25547 1.27237
lowerneck -4.96524 0.720577 1.53034
upperneck 7.84947 0.390265 5.38355
head 3.41182 0.456271 1.51919
rclavicle 5.34855e-015 -1.19271e-014
rhumerus -37.3354 5.12552 -82.0772
rradius 29.7887
rwrist 1.70164
rhand -16.9314 51.3095
rfingers 7.12502
rthumb 9.30151 21.5347
lclavicle 5.34855e-015 -1.19271e-014
lhumerus -35.9296 -10.4939 83.7843
lradius 33.4917
lwrist 23.9945
lhand -23.4516 62.8274
lfingers 7.12502
lthumb -176.993 87.2141
rfemur -22.2893 0.430903 17.2407
rtibia 45.6669
rfoot -27.0869 -3.616
rtoes 5.99449
lfemur -10.7229 -1.5171 -20.8644
ltibia 23.9338
lfoot -14.082 4.09021
ltoes -6.44431
14
root 0.877648 18.0914 -31.101 5.18825 -3.14932 -3.13892
lowerback -5.10064 1.84947 -0.785815
upperback -2.04748 2.4926 0.661649
thorax 0.690074 1.25165 1.25698
lowerneck -5.26223 0.80091 1.57517
upperneck 7.85088 0.483463 5.38562
head 3.46783 0.507977 1.51967
rclavicle -2.14501e-014 -5.1684e-015
rhumerus -37.1898 4.82478 -81.9773
rradius 29.7768
rwrist 1.9736
rhand -17.2671 51.5118
rfingers 7.12502
rthumb 8.97765 21.7228
lclavicle -2.14501e-014 -5.1684e-015
lhumerus -35.6474 -10.2298 83.4478
lradius 32.9192
lwrist 23.7679
lhand -23.5915 62.2539
lfingers 7.12502
lthumb -177.128 87.7857
rfemur -22.6047 0.436399 16.9818
rtibia 45.9522
rfoot -26.1463 -3.46201
rtoes 2.82592
lfemur -10.9407 -1.09409 -20.9184
ltibia 24.0613
lfoot -14.1038 3.63483
ltoes -5.3626
15
root 0.920571 18.0891 -31.1102 5.19748 -3.28077 -3.03336
lowerback -5.077 1.84788 -0.898449
upperback -1.98908 2.49638 0.598171
thorax 0.734763 1.25315 1.25553
lowerneck -5.56171 0.83735 1.49795
upperneck 7.93536 0.518856 5.44852
head 3.55511 0.531793 1.5613
rclavicle -1.49399e-014 5.96354e-015
rhumerus -37.1299 4.75614 -81.9907
rradius 29.8687
rwrist 1.9292
rhand -17.1422 51.3169
rfingers 7.12502
rthumb 9.09811 21.5332
lclavicle -1.49399e-014 5.96354e-015
lhumerus -35.3915 -9.83508 83.0563
lradius 32.3269
lwrist 23.1542
lhand -23.3172 62.3719
lfingers 7.12502
lthumb -176.863 87.6714
rfemur -22.8209 0.271607 16.5093
rtibia 46.2193
rfoot -25.0523 -3.13559
rtoes -0.48429
lfemur -11.034 -0.528204 -21.1867
ltibia 24.1093
lfoot -14.0385 3.34159
ltoes -6.59149
